# xmcd
#
# Track frame offsets:
#	150
#	16530
#	34704
#	49668
#	68676
#	85935
#	102859
#	118625
#	136460
#	153354
#	175070
#	192985
#	209588
#	225133
#	243744
#	259899
#
# Disc length: 3743 seconds
# Revision: 1
# Processed by: cddbd v1.5.2PL0 Copyright (c) Steve Scherf et al.
# Submitted via: dBpowerAMP V12.0
#
DISCID=cd0e9d10
DTITLE=Various Artist - Bridges
DYEAR=2014
DGENRE=Soul
TTITLE0=Joe,AKAJoeLewisThomas,Columbus,GA - Future Teller
TTITLE1=Joe,AKAJoeLewisThomas,Columbus,GA - Dilemma
TTITLE2=Joe,AKAJoeLewisThomas,Columbus,GA - Do A Little Dance
TTITLE3=Joe,AKAJoeLewisThomas,Columbus,GA - If You Lose Her
TTITLE4=Joe,AKAJoeLewisThomas,Columbus,GA - Sex Ain't A Weapon
TTITLE5=Joe,AKAJoeLewisThomas,Columbus,GA,featuringKellyRowland - Love and Sex Pt 2
TTITLE6=Joe,AKAJoeLewisThomas,Columbus,GA - Blame Her Broken Heart On Me
TTITLE7=Joe,AKAJoeLewisThomas,Columbus,GA - First Lady
TTITLE8=Joe,AKAJoeLewisThomas,Columbus,GA - Take It To The House
TTITLE9=Joe,AKAJoeLewisThomas,Columbus,GA - Till The Rope Gives Away
TTITLE10=Joe,AKAJoeLewisThomas,Columbus,GA - The Rest Will Follow
TTITLE11=Joe,AKAJoeLewisThomas,Columbus,GA - Mary Jane (Remix) Ft 50 Cent
TTITLE12=Joe,AKAJoeLewisThomas,Columbus,GA - Bridges
TTITLE13=Joe,AKAJoeLewisThomas,Columbus,GA - Love Sex Hollywood
TTITLE14=Joe,AKAJoeLewisThomas,Columbus,GA - For Love
TTITLE15=Joe,AKAJoeLewisThomas,Columbus,GA - Love Undefeated
EXTD=
EXTT0=
EXTT1=
EXTT2=
EXTT3=
EXTT4=
EXTT5=
EXTT6=
EXTT7=
EXTT8=
EXTT9=
EXTT10=
EXTT11=
EXTT12=
EXTT13=
EXTT14=
EXTT15=
PLAYORDER=
